# xmcd CD database file
#
# Track frame offsets:
#	150
#	23366
#	42703
#	56654
#	75403
#	95318
#	111250
#	132277
#	151049
#	178307
#	192321
#	219022
#	240016
#
# Disc length: 3500 seconds
#
# Revision: 0
# Processed by: cddbd v1.5.1PL0 Copyright (c) Steve Scherf et al.
# Submitted via: CDex 1.51
#
DISCID=990daa0d
DTITLE=Yoshiko Kishino  - Rediscovery on Grp CD 2
DYEAR=2004
DGENRE=Jazz
TTITLE0=Yoshiko Kishino - Siesta
TTITLE1=Yoshiko Kishino - Antonio's Song
TTITLE2=Yoshiko Kishino - So Many Stars
TTITLE3=Yoshiko Kishino - Poco Brazil
TTITLE4=Yoshiko Kishino - Norwegian Wood
TTITLE5=Yoshiko Kishino - Corcovado
TTITLE6=Yoshiko Kishino - Days of Wine and Roses
TTITLE7=Yoshiko Kishino - Waltz for Debby
TTITLE8=Yoshiko Kishino - Here's That Rainy Day
TTITLE9=Yoshiko Kishino - You Are So Beautiful
TTITLE10=Yoshiko Kishino - Rendez-Vous
TTITLE11=Yoshiko Kishino - When You Wish Upon a Star
TTITLE12=Yoshiko Kishino - Welcome Home
EXTD=YEAR: 2004
EXTT0=
EXTT1=
EXTT2=
EXTT3=
EXTT4=
EXTT5=
EXTT6=
EXTT7=
EXTT8=
EXTT9=
EXTT10=
EXTT11=
EXTT12=
PLAYORDER=
